<svg xmlns="http://www.w3.org/2000/svg">
  <path
    data-name="path2"
    d="M116.93548387096774 142.02508960573476 C134.85663082437276 124.10394265232975 129.48028673835123 64.51612903225806 172.04301075268816 86.91756272401433C214.6057347670251 109.3189964157706 317.65232974910396 125.89605734767025 306.0035842293907 157.25806451612902C294.35483870967744 188.6200716845878 296.14695340501794 212.3655913978495 274.19354838709677 192.65232974910396C252.24014336917563 172.9390681003584 161.29032258064515 114.69534050179212 160.3942652329749 126.7921146953405C159.49820788530465 138.88888888888889 130.82437275985663 197.13261648745518 119.17562724014337 191.75627240143368C107.52688172043011 186.37992831541217 107.52688172043011 187.27598566308245 120.96774193548387 138.44086021505376"
    stroke="black"
    stroke-width="1"
    fill="red"
  />
  <path
    data-name="path3"
    d="M226.70250896057348 66.75627240143369 C237.90322580645162 70.3405017921147 258.5125448028674 96.77419354838709 267.4731182795699 86.02150537634408C276.4336917562724 75.26881720430107 271.5053763440861 66.75627240143369 256.7204301075269 60.03584229390681C241.93548387096774 53.31541218637993 225.80645161290323 39.87455197132616 222.22222222222223 48.83512544802867C218.63799283154123 57.79569892473118 211.46953405017922 61.37992831541219 224.91039426523298 64.96415770609319C238.35125448028674 68.54838709677419 238.35125448028674 68.54838709677419 238.35125448028674 68.54838709677419"
    stroke="black"
    stroke-width="1"
    fill="red"
  />
  <path
    data-name="path4"
    d="M267.02508960573476 42.562724014336915 C239.69534050179212 27.32974910394265 241.93548387096774 34.49820788530466 246.86379928315412 21.953405017921146C251.7921146953405 9.408602150537634 268.36917562724017 21.05734767025089 274.6415770609319 24.641577060931898C280.9139784946237 28.225806451612904 307.34767025089604 28.673835125448022 307.34767025089604 43.01075268817204C307.34767025089604 57.34767025089606 258.9605734767025 38.97849462365591 256.27240143369175 38.08243727598566"
    stroke="black"
    stroke-width="1"
    fill="red"
  />
</svg>